PathFileType	4	(X/Y/Z)	/Users/visionmauri/Downloads/Videos/OAW07-top_Sports2D/OAW07-top_Sports2D_px_person00.trc
DataRate	CameraRate	NumFrames	NumMarkers	Units	OrigDataRate	OrigDataStartFrame	OrigNumFrames
30.0	30.0	6	22	m	30.0	1512	3025
Frame#	Time	Hip			RHip			RKnee			RAnkle			RBigToe			RSmallToe			RHeel			LHip			LKnee			LAnkle			LBigToe			LSmallToe			LHeel			Neck			Head			Nose			RShoulder			RElbow			RWrist			LShoulder			LElbow			LWrist			
		X1	Y1	Z1	X2	Y2	Z2	X3	Y3	Z3	X4	Y4	Z4	X5	Y5	Z5	X6	Y6	Z6	X7	Y7	Z7	X8	Y8	Z8	X9	Y9	Z9	X10	Y10	Z10	X11	Y11	Z11	X12	Y12	Z12	X13	Y13	Z13	X14	Y14	Z14	X15	Y15	Z15	X16	Y16	Z16	X17	Y17	Z17	X18	Y18	Z18	X19	Y19	Z19	X20	Y20	Z20	X21	Y21	Z21	X22	Y22	Z22
1512	50.416666666666664	532.8708935943077	585.2574331009536	0.0	546.7768844926838	586.2885277871621	0.0	541.3486714417343	648.3406572075385	0.0	537.9252882516873	708.3954010043301	0.0	534.1698115958815	726.236609402555	0.0	546.0406438500162	727.8689868487775	0.0	535.9178597832982	721.2072392015906	0.0	518.3002502660146	585.9843854825217	0.0	521.6254322861141	645.8183332680142	0.0	523.5520900722563	699.6990543093154	0.0	525.6566604031351	707.3366810518048	0.0	516.6402215621241	710.6961732638072	0.0	525.3904134618549	709.9717720099076	0.0	535.4939264076168	506.59879405375995	0.0	536.6992624165275	478.12445246685724	0.0	536.9427737076514	494.8444824425417	0.0	560.5362179681869	516.2431358141579	0.0	574.6820240486418	560.4486698567662	0.0	571.1739344222354	587.9642643995412	0.0	510.93679828101	516.6448915741984	0.0	500.6916009033788	558.5119801097773	0.0	497.71002058902815	592.9595227127378	0.0
1513	50.45001102292768	532.8834869435004	585.0884249161833	0.0	546.8245355733334	586.2497338375022	0.0	541.5497718189816	647.6932548775127	0.0	538.8860626277499	704.1573520225768	0.0	534.5303758364842	725.6602408912918	0.0	545.8353613174864	725.9934525699905	0.0	536.7748269892862	716.454051288465	0.0	518.339320865128	586.1929564924297	0.0	522.0164900714028	645.0901036332529	0.0	524.5014378749299	698.8586259315757	0.0	527.0219686647149	708.9872060868278	0.0	517.5810412444991	711.2448307739959	0.0	526.4738764137372	709.3413072626763	0.0	535.0306905128899	506.2940007418683	0.0	536.0161702166718	478.32246748943663	0.0	534.4983697863702	494.49010254744746	0.0	559.8035763269345	516.142259949153	0.0	574.0700785655905	559.9398501569959	0.0	571.0936852487498	587.7349510906178	0.0	510.77635732734933	516.5974569596217	0.0	500.6677159820217	558.1594151792783	0.0	497.7599034403817	592.9101673927239	0.0
1514	50.48335537918871	532.8950218234119	585.2707120613368	0.0	546.7818585043141	586.1506420454211	0.0	542.1004915758638	647.0996931468928	0.0	540.3582594735186	699.7716405161102	0.0	535.2200661940623	723.898091289341	0.0	545.72279112329	723.43789722042	0.0	538.0091763740159	711.0692176518049	0.0	518.3927240585878	586.2279607312657	0.0	522.0912091442905	644.6737088720394	0.0	524.9957262566813	698.3926291744377	0.0	528.6819356281337	709.7336938584419	0.0	518.5298869469843	711.3577105073975	0.0	526.9420641147773	709.0945042383693	0.0	534.6193984513186	505.6352588988027	0.0	535.5758138344069	478.3804298903159	0.0	533.9139335002932	493.4387276262882	0.0	559.1705207685382	515.7592440039505	0.0	573.5005869932219	559.3359773577341	0.0	571.2111062258964	587.0850549347334	0.0	510.61800321232454	516.2794560345828	0.0	500.60235507779544	557.8514300017605	0.0	497.5561320311131	592.6077749802163	0.0
1515	50.51669973544973	532.8023715955962	585.2187877812594	0.0	546.547475377767	585.4290953280284	0.0	542.9056880212096	645.6591539999039	0.0	541.833881943781	695.2600774611938	0.0	536.3626928417858	720.8714799297783	0.0	546.253809536514	720.2349737244007	0.0	539.207533682948	705.3548442077872	0.0	518.4231491498401	585.4642437454252	0.0	522.0727721544108	644.446383138248	0.0	525.0784210947804	698.376368361226	0.0	529.9301020409373	709.9751607566064	0.0	518.9423210303969	711.5623182323005	0.0	526.7471943876158	709.2645968098748	0.0	534.1346921379404	504.8278336746661	0.0	535.2814035506528	477.6538415877864	0.0	534.272936215222	491.84452535714985	0.0	558.8227925085706	515.2213865258979	0.0	573.01603966662	558.4761460309093	0.0	571.2168752230777	586.0836930187596	0.0	510.03036932951875	515.706747365686	0.0	500.7125185838146	557.4811428193274	0.0	497.44796456110316	591.6780007613723	0.0
1516	50.55004409171075	532.6466637778743	584.6518525470483	0.0	546.2850333772249	584.388818857582	0.0	543.8101446342954	643.372447004486	0.0	543.0387491525297	690.8919829201501	0.0	538.4012806728721	717.7165124984951	0.0	547.9209487692307	716.8995538499144	0.0	540.3889701875391	700.4238267566561	0.0	518.3984103679251	584.1802402251442	0.0	522.0558663811382	643.9444314448205	0.0	525.0273204973702	698.5713368078948	0.0	530.4927517347076	710.0250133264481	0.0	519.1162577303812	712.0109554326277	0.0	526.218499803465	709.7929341978149	0.0	533.5557954713985	503.4987831934328	0.0	534.9625180197118	475.56826274782725	0.0	534.1658652465803	489.88564403366246	0.0	558.7666637604718	514.264178890474	0.0	572.4355107485617	557.2167618256276	0.0	570.8458059659257	585.3293860526926	0.0	509.3492488213176	514.6989673737313	0.0	500.8238085406908	556.6814822856263	0.0	497.5588092532341	590.123133463321	0.0
1517	50.58338844797178	532.4357388638746	583.7294711905313	0.0	546.0817779223394	583.8867899438516	0.0	544.6975460382749	641.1312581275422	0.0	544.2201978875212	687.5166139647665	0.0	541.3285073759383	715.5228794246881	0.0	550.5541869465575	714.1645118508764	0.0	541.7445121333499	697.5336298124607	0.0	518.3387797547995	583.2765587514946	0.0	522.0427771199941	643.1760625132963	0.0	525.1117616032291	698.6813526917881	0.0	530.8125018241291	710.0939211793408	0.0	519.7467094007668	712.4322498376356	0.0	525.9090943899633	710.4307764168464	0.0	532.9563065786532	501.5627027360419	0.0	534.277751824449	472.57134403012606	0.0	532.6040190311811	487.91032555062276	0.0	558.7963205694778	512.9068895234287	0.0	571.6182393309821	555.808587317065	0.0	570.1518604612049	585.2826289374616	0.0	508.88810954578906	513.4968264184072	0.0	500.5818262357501	555.5591602775626	0.0	497.68980689382664	588.6245394284635	0.0
